<?xml version="1.0" encoding="UTF-8"?>
<svg id="Layer_1" data-name="Layer 1" xmlns="http://www.w3.org/2000/svg" viewBox="0 0 71.41 72.08">
  <defs>
    <style>
      .cls-1 {
        fill: #a5cd39;
        fill-rule: evenodd;
      }

      .cls-1, .cls-2, .cls-3, .cls-4 {
        stroke-width: 0px;
      }

      .cls-2 {
        fill: #8dd7f7;
      }

      .cls-3 {
        fill: #00adee;
      }

      .cls-4 {
        fill: #005b94;
      }
    </style>
  </defs>
  <path class="cls-4" d="M1.99,39.01c-.09,1.08-.6,1.8-1.14,1.62-.54-.18-.9-1.2-.81-2.29.43-5.05,6.79-9.84,15.55-13.45,5.9-2.43,12.94-4.46,19.96-5.76,7.02-1.29,14.01-1.86,19.8-1.36,3.62.3,6.8,1.05,9.26,2.32-.56-1.55-2.58-2.68-5.56-3.44-4.38-1.13-10.62-1.23-17.39-.56-6.77.68-14.06,2.12-20.54,4.06-9.77,2.93-17.56,6.79-18.52,10.53-.25.97-.85,1.36-1.33.85-.49-.5-.68-1.69-.43-2.66,1.29-5,9.65-9.54,20-12.64,6.52-1.95,13.88-3.4,20.74-4.08,6.07-.61,11.74-.6,16.1.22-.32-.3-.69-.57-1.11-.81-4.85-2.85-15.27-2.1-25.46.13-10.23,2.23-20.19,5.95-24.09,9.02-.59.47-1.01.88-1.22,1.24-.41.7-1.04.6-1.4-.24-.35-.83-.3-2.08.12-2.78.37-.65.98-1.28,1.78-1.91,4.05-3.18,14.21-7,24.6-9.27,5.14-1.12,10.35-1.87,14.92-1.97-3.42-.73-8.57-.52-13.74.22-6.64.95-13.27,2.75-16.38,4.52-.73.41-1.19.76-1.33,1.01-.41.73-1.03.67-1.4-.14s-.33-2.06.07-2.8c.37-.68,1.11-1.32,2.11-1.88,3.21-1.83,10.01-3.7,16.77-4.66,6.79-.97,13.61-1.03,16.84.77.8.44,1.42,1.02,1.84,1.75.22.37.33.88.33,1.41,2.48.28,4.6.85,6.19,1.79.83.49,1.53,1.08,2.09,1.79.46.58.6,1.8.3,2.73-.06.18-.12.32-.2.45,3.67.95,6.22,2.72,7.05,5.49.29.94.13,2.15-.33,2.71h0c1.56,1.06,2.73,2.4,3.4,4.04.35.85.29,2.09-.14,2.78-.04.06-.08.13-.13.18,4.76,17.72-5.17,36.25-22.83,41.95-18.23,5.89-37.77-4.11-43.66-22.32l64.77-20.94c-1.82-2.87-6.33-4.39-12.17-4.9-5.71-.49-12.6.07-19.54,1.36-6.94,1.28-13.9,3.28-19.73,5.69-7.97,3.28-13.71,7.03-13.99,10.24h0Z"/>
  <path class="cls-1" d="M31.52,24.09c18.22-5.88,34.84-4.93,37.12,2.13,2.29,7.06-10.64,17.56-28.86,23.45-18.22,5.89-34.84,4.94-37.12-2.12-2.28-7.06,10.64-17.56,28.86-23.46h0Z"/>
  <path class="cls-2" d="M30.99,72.04c-.22,0-.39-.37-.38-.81,0-.44.18-.78.41-.77,6.91.37,14.39-1.62,20.88-5.17,6.41-3.51,11.84-8.54,14.79-14.29.15-.3.41-.29.56.02.15.32.14.81,0,1.12-3.04,5.94-8.59,11.11-15.13,14.69-6.56,3.59-14.12,5.6-21.11,5.22h0ZM5.83,57.36c-.53-.23-.88-1.28-.77-2.35.11-1.07.64-1.75,1.17-1.52,5.84,2.47,14.33,2.14,23.17.06,8.23-1.95,16.73-5.44,23.68-9.62,6.83-4.11,12.29-8.83,14.21-13.34,1.1-2.13.74-2.51.46-3.48l-.18-.4c-.76-2.35-4.19-3.82-9.26-4.37-5.31-.57-12.27.02-19.78,1.8-2.3.54-4.62,1.19-6.92,1.94-9.03,2.92-16.76,6.94-21.93,11.1-4.54,3.64-7.02,6.97-6.33,9.09.3.92.16,2.14-.3,2.73-.46.59-1.07.33-1.36-.59-1.55-4.81,1.33-10.15,7.25-14.9,5.29-4.25,13.17-8.36,22.35-11.33,2.39-.77,4.74-1.43,7-1.97,7.61-1.8,14.69-2.4,20.11-1.81,5.68.61,9.68,2.67,10.81,6.18.07.22.13.41.18.59.63,2.68.31,5.36-.8,7.96-2.17,5.13-7.79,10.27-14.96,14.59-7.06,4.25-15.68,7.78-24.01,9.76-9.02,2.14-17.75,2.46-23.81-.11h0ZM11.25,63.79c-.44-.1-.75-.88-.7-1.75.06-.87.45-1.49.88-1.4,7.88,1.82,18.16.18,27.93-3.22,7.57-2.64,14.84-6.33,20.41-10.29,5.41-3.86,9.18-7.85,9.94-11.19.14-.63.14-1.22-.05-1.75-.26-.72-.16-1.71.2-2.21.36-.49.85-.32,1.1.4.53,1.55.58,3.19.19,4.89-.96,4.16-5.05,8.71-10.86,12.84-5.65,4.03-13,7.77-20.67,10.44-9.89,3.44-20.34,5.09-28.37,3.25h0ZM19.18,68.95c-.33-.02-.58-.58-.57-1.24.02-.65.3-1.16.62-1.13,9.03.78,21.49-1.97,31.84-7.18,8.79-4.42,16.02-10.56,18.24-17.72.17-.56.53-.73.81-.39s.37,1.08.19,1.63c-2.39,7.74-9.89,14.22-18.96,18.78-10.45,5.25-23.04,8.03-32.19,7.24h0Z"/>
  <path class="cls-3" d="M25.14,5.84c-.54.17-1.04-.57-1.13-1.64s.29-2.1.82-2.26C30.06.25,33.83-.23,35.69.1c.97.18,1.63.67,1.93,1.45.59,1.55.33,2.99-.87,4.2-1.27,1.28-4.52,3.01-10.09,4.82-3.76,1.21-8.09,2.08-10.72,2.21-.74.03-1.36,0-1.8-.08-.93-.19-1.48-.92-1.52-2.27-.02-.7.1-1.32.39-1.84.41-.73,1.04-.67,1.4.14l.02.06c.36.06.86.07,1.47.04,2.54-.13,6.78-.97,10.45-2.16,2.9-.94,5.13-1.83,6.73-2.63-1.95.18-4.63.75-7.94,1.82h0ZM67.88,27.48c-.35-.85-.29-2.09.13-2.79.42-.69,1.04-.57,1.4.26.07.17.14.35.2.55l.05.15c1.29,4.27-.89,8.87-5.54,13.09-4.1,3.73-10.27,7.45-17.59,10.46-2.1.87-4.31,1.68-6.59,2.42h0c-9.17,2.97-17.95,4.2-24.72,3.82-7.04-.41-12.05-2.71-13.39-6.82-.29-.92-.17-2.14.3-2.73.45-.59,1.07-.33,1.36.59.95,2.94,5.38,4.64,11.78,5.01,6.64.38,15.25-.84,24.28-3.74.05-.03.1-.05.16-.06,2.22-.72,4.37-1.51,6.43-2.36,7.16-2.95,13.18-6.58,17.16-10.2,3.36-3.05,5.15-5.71,4.67-7.41l-.02-.06s-.03-.1-.06-.18h0ZM64.65,20.24c-.29-.94-.13-2.15.33-2.72.47-.56,1.08-.26,1.36.69,1.95,6.51-6.37,13.14-17.87,18.12-7.5,3.24-16.38,6-24.43,7.64-8.08,1.64-15.32,2.15-19.52.88-3.09-.92-4.78-3.01-4.48-6.51.1-1.08.61-1.8,1.15-1.62.53.18.9,1.21.81,2.29-.06.73,1,1.38,2.82,1.93,4.04,1.21,11.11.71,19.04-.9,7.95-1.62,16.74-4.35,24.2-7.58,10.01-4.33,17.55-9.06,16.61-12.21h0ZM57.83,10.16c.29-.92.9-1.2,1.36-.61.29.36.5.79.65,1.28h0c.59,1.92.14,3.87-1.17,5.76-.89,1.28-2.3,2.68-4.11,4.11-4.86,3.81-12.81,7.96-21.8,10.7-8.52,2.59-16.69,3.74-22.54,3.68-2.57-.02-4.7-.28-6.23-.75-1.89-.59-3.05-1.73-3.28-3.42-.09-.68-.05-1.36.12-2.03.26-.97.85-1.36,1.34-.85.36.37.56,1.13.53,1.89.19.07.74.25,1.59.51,1.44.44,3.46.69,5.93.71,5.73.05,13.79-1.09,22.24-3.66,8.85-2.69,16.65-6.74,21.38-10.47,1.65-1.3,2.91-2.54,3.68-3.64.88-1.36-.65-.19.31-3.2h0ZM49.18,4.74c.36-.82.98-.9,1.4-.18.13.22.22.45.3.7.63,1.95.14,3.65-1.26,5.13-.85.9-2.15,1.83-3.79,2.77-3.91,2.23-9.94,4.61-16.47,6.72-7.37,2.38-15.35,3.93-20.11,4.11-1.36.06-2.46,0-3.23-.19-1.28-.3-2-1.2-2.03-2.77v-.06c0-.77.16-1.45.51-2.05.41-.71,1.04-.61,1.4.23.12.29.19.63.22.97.03-.16.08-.28.13-.26.71.17,1.72.22,2.97.18,4.68-.18,12.55-1.71,19.84-4.07,6.43-2.08,12.37-4.42,16.24-6.63,4.38-2.5,2.53-1.47,3.9-4.6h0Z"/>
</svg>